<svg id="圖層_1" data-name="圖層 1" xmlns="http://www.w3.org/2000/svg" viewBox="0 0 248.66 50.18"><defs><style>.cls-1{fill:#ea5504;}.cls-2{fill:#7e6d68;}.cls-3{fill:#231815;}</style></defs><path class="cls-1" d="M82.52,47.67v-2.4a3.58,3.58,0,0,1,3.58-3.58h2.39a9.56,9.56,0,0,0,9.56-9.56h0a9.56,9.56,0,0,0-9.56-9.56H86.1A3.58,3.58,0,0,1,82.52,19V16.6A9.56,9.56,0,0,0,73,7h0A9.56,9.56,0,0,0,63.4,16.6V19a3.58,3.58,0,0,1-3.58,3.58H57.43a9.56,9.56,0,0,0-9.56,9.56h0a9.56,9.56,0,0,0,9.56,9.56h2.39a3.58,3.58,0,0,1,3.58,3.58v2.4A9.56,9.56,0,0,0,73,57.22h0A9.56,9.56,0,0,0,82.52,47.67Z" transform="translate(-4.81 -7.04)"/><path class="cls-2" d="M39.67,11.44a2.45,2.45,0,0,0,1.07-2h0A2.39,2.39,0,0,0,38.35,7H7.2A2.39,2.39,0,0,0,4.81,9.43h0a2.45,2.45,0,0,0,1.07,2A25,25,0,0,1,16.81,32.13,25,25,0,0,1,5.88,52.83a2.44,2.44,0,0,0-1.07,2h0A2.39,2.39,0,0,0,7.2,57.22H38.35a2.38,2.38,0,0,0,2.39-2.4h0a2.42,2.42,0,0,0-1.07-2,25.07,25.07,0,0,1,0-41.39Z" transform="translate(-4.81 -7.04)"/><path class="cls-3" d="M123.33,19.84c-.2.33-.38.64-.57.92h4.1V22H116.17c0,.34-.09.69-.14,1h3.26s0,.34,0,.53c-.19,1.8-.37,2.63-.71,3a1.39,1.39,0,0,1-1,.4,17.25,17.25,0,0,1-1.78,0,3.39,3.39,0,0,0-.35-1.19,9.33,9.33,0,0,0,1.44.07c.24,0,.38,0,.48-.12a3.06,3.06,0,0,0,.4-1.49h-2a4.71,4.71,0,0,1-3.48,2.92,3.66,3.66,0,0,0-.76-1.07,4.18,4.18,0,0,0,2.74-1.85h-2.07V23h2.45a10,10,0,0,0,.16-1h-2.84V20.76h4.27a4.2,4.2,0,0,0-.59-1l1-.15H113.7v-3.3h11.52v3.3h-3ZM127,12.28v1.21h-6.81v.88h5.62v1.16H113.11V14.37h5.44v-.88h-6.62V12.28h6.62V11.19h1.6v1.09Zm-11.8,6.27h8.48V17.41h-8.48Zm2.06,1.09a3.71,3.71,0,0,1,.64,1.05l-.35.07h3.6c.17-.36.37-.8.51-1.12Zm2.93,3.05h6V27h-1.51v-.45h-3.07V27h-1.44Zm1.44,1.14v1.56h3.07V23.83Z" transform="translate(-4.81 -7.04)"/><path class="cls-3" d="M144.19,22.71a9,9,0,0,1-2.19,2,2.54,2.54,0,0,0,1.83.85c.45,0,.57-.36.65-1.47a3.57,3.57,0,0,0,1.21.62c-.24,1.87-.74,2.32-1.95,2.32a4.12,4.12,0,0,1-3.07-1.5A22.46,22.46,0,0,1,137,27a7.32,7.32,0,0,0-.83-1.28,16.62,16.62,0,0,0,3.71-1.29,10.8,10.8,0,0,1-1-2.28h-3.72v.93l2.86-.21V24l-2.86.24v1.29c0,.78-.17,1.13-.74,1.3a9.48,9.48,0,0,1-2.69.21,7.37,7.37,0,0,0-.47-1.26c.87.05,1.78.05,2,0s.34-.07.34-.31V24.39l-3.45.27L130,23.42c1-.05,2.23-.12,3.59-.23v-1H130.1V20.93h3.52V20c-1,.11-2,.18-2.94.21a4.08,4.08,0,0,0-.34-1,40.5,40.5,0,0,0,6.49-.79l.95,1c-.76.19-1.66.33-2.61.47v1.12h3.41a15.92,15.92,0,0,1-.31-2.38h1.55a13.56,13.56,0,0,0,.31,2.38h3.46a13,13,0,0,0-2.78-1.59l.89-.93a10.41,10.41,0,0,1,2.84,1.52l-.92,1h1.81v1.23H140.5a7.27,7.27,0,0,0,.7,1.54,6.84,6.84,0,0,0,1.63-1.46Zm1.17-4.4H130.11V17.05h6.77v-.88h-5.09V15h5.09v-.88h-6V12.92h3.32a7.21,7.21,0,0,0-.83-1.26l1.4-.47a6.21,6.21,0,0,1,1.14,1.69l-.08,0h3.83a14.79,14.79,0,0,0,.91-1.76l1.75.38c-.35.5-.68,1-1,1.38h3.3v1.21h-6.09V15h5.18v1.16h-5.18v.88h6.83Z" transform="translate(-4.81 -7.04)"/><path class="cls-3" d="M156.76,15.2v2.14h5.54v5.92c0,.85-.17,1.33-.81,1.57a9,9,0,0,1-3,.28,5.34,5.34,0,0,0-.58-1.57c1,0,2.08,0,2.35,0s.38-.08.38-.32V18.91h-3.88V27h-1.68V18.91h-3.64v6.24h-1.63V17.34h5.27V15.2h-6.84V13.63h7.15a22.69,22.69,0,0,0-1-2.11l1.58-.47a19.65,19.65,0,0,1,1.31,2.58h6.47V15.2Z" transform="translate(-4.81 -7.04)"/><path class="cls-3" d="M181.07,15.85a19.82,19.82,0,0,1-2.14,6.84,8.38,8.38,0,0,0,3.42,3A6.26,6.26,0,0,0,181.26,27a9.51,9.51,0,0,1-3.3-2.9,11.54,11.54,0,0,1-3.71,2.95,6.79,6.79,0,0,0-.93-1.42,9.13,9.13,0,0,0,3.74-3,18.77,18.77,0,0,1-1.6-4.35c-.3.5-.59,1-.9,1.38a6.68,6.68,0,0,0-1-.88h-1.91v4l2.71-.57.15,1.45c-2.83.67-5.85,1.38-8,1.85l-.29-1.61,1-.19V16.22h1.45v7.22l1.45-.32V13.87h-3.52V12.31h7.84v1.56h-2.74v3.42h2.16v.53a18.48,18.48,0,0,0,2.29-6.65l1.59.28c-.19,1-.43,2-.69,2.9h5.18v1.5Zm-4.64.28a19.89,19.89,0,0,0,1.59,5,18.7,18.7,0,0,0,1.44-5.24h-2.93Z" transform="translate(-4.81 -7.04)"/><path class="cls-3" d="M187.08,14.46v4.31c0,2.47-.21,6.12-1.54,8.38a7,7,0,0,0-1.38-.93c1.21-2.09,1.29-5.17,1.29-7.45V13h6.69c-.23-.52-.45-1.09-.68-1.54l1.61-.43a19.06,19.06,0,0,1,.91,2h5.89v1.49Zm4.85.7A19.49,19.49,0,0,1,190.67,18v9.07h-1.5V20.29A11,11,0,0,1,188,21.55a8,8,0,0,0-.69-1.5,13,13,0,0,0,3.06-5.34Zm8,3.72h-1.81v6.28c0,.9-.19,1.35-.78,1.59a7.71,7.71,0,0,1-2.83.3,5.84,5.84,0,0,0-.5-1.59c.93.05,1.88,0,2.14,0s.38-.08.38-.34V18.88h-4.87V17.39h4.87V14.94h1.59v2.45h1.81Zm-6.51,1a23.42,23.42,0,0,1,1.87,3.28l-1.35.64a28.22,28.22,0,0,0-1.82-3.39Z" transform="translate(-4.81 -7.04)"/><path class="cls-3" d="M215.54,15.72a17.88,17.88,0,0,1-3.81,6.44,17.11,17.11,0,0,0,6.75,3.28,7.75,7.75,0,0,0-1.09,1.48,17.18,17.18,0,0,1-6.91-3.59,19.67,19.67,0,0,1-7.06,3.7,8.1,8.1,0,0,0-1-1.54,17.7,17.7,0,0,0,6.87-3.32,19.4,19.4,0,0,1-3.92-6.45h-2.66V14.16h7.48A14.09,14.09,0,0,0,209,11.55l1.7-.5A13.91,13.91,0,0,1,212,13.68l-1.53.48h7.75v1.56Zm-8.49,0a16.48,16.48,0,0,0,3.45,5.33,14.94,14.94,0,0,0,3.25-5.33Z" transform="translate(-4.81 -7.04)"/><path class="cls-3" d="M226.11,11.76A25.21,25.21,0,0,1,224.42,15V27H222.9V17.24a17.82,17.82,0,0,1-2.06,2.29,8.08,8.08,0,0,0-.88-1.62,18.71,18.71,0,0,0,4.68-6.63Zm7.06,13.33c.94,0,1.09-.72,1.23-3.62a4.72,4.72,0,0,0,1.45.7c-.22,3.24-.62,4.37-2.57,4.37h-3.1c-1.89,0-2.43-.57-2.43-2.64V11.48h1.54V16h6.08v1.54h-6.08v6.36c0,1,.17,1.15,1,1.15Z" transform="translate(-4.81 -7.04)"/><path class="cls-3" d="M253.48,18s0,.48,0,.71c-.21,5.11-.4,7-.9,7.67a1.6,1.6,0,0,1-1.24.62,14.11,14.11,0,0,1-2.23,0,3.64,3.64,0,0,0-.45-1.52,13.15,13.15,0,0,0,1.88.09.63.63,0,0,0,.61-.24c.33-.36.53-1.9.69-5.94H241.73a15.51,15.51,0,0,1-2.24,7.22,6.64,6.64,0,0,0-1.3-1c1.92-2.75,2.09-6.65,2.09-9.41V12h12v4.63H241.87c0,.41,0,.84,0,1.29ZM241.87,13.4v1.88h8.78V13.4Zm2.61,11.75v1H243V20.59h6.64v4.56Zm0-3.29v2h3.64v-2Z" transform="translate(-4.81 -7.04)"/><path class="cls-3" d="M112.31,36.88a2.82,2.82,0,0,1,1.08-1.06,3.15,3.15,0,0,1,3.14.08,2.59,2.59,0,0,1,1,1.29h-1.14a1.67,1.67,0,0,0-.63-.68,1.89,1.89,0,0,0-.93-.23,2,2,0,0,0-1,.26,1.81,1.81,0,0,0-.71.74,2.41,2.41,0,0,0-.25,1.13,2.38,2.38,0,0,0,.25,1.13,1.78,1.78,0,0,0,.71.75,2,2,0,0,0,1,.26,1.88,1.88,0,0,0,.93-.22,1.63,1.63,0,0,0,.63-.69h1.14a2.59,2.59,0,0,1-1,1.29,3.2,3.2,0,0,1-3.15.07,2.79,2.79,0,0,1-1.07-1.06,3.13,3.13,0,0,1,0-3.06Z" transform="translate(-4.81 -7.04)"/><path class="cls-3" d="M120.34,35.52v3.71a1.31,1.31,0,0,0,.35,1,1.33,1.33,0,0,0,1,.33,1.37,1.37,0,0,0,1-.33,1.31,1.31,0,0,0,.35-1V35.52h1v3.69a2.19,2.19,0,0,1-.31,1.2,1.91,1.91,0,0,1-.83.74,2.68,2.68,0,0,1-1.14.24,2.64,2.64,0,0,1-1.14-.24,1.84,1.84,0,0,1-.82-.74,2.27,2.27,0,0,1-.3-1.2V35.52Z" transform="translate(-4.81 -7.04)"/><path class="cls-3" d="M127,40.56h2v.77H126V35.52h1Z" transform="translate(-4.81 -7.04)"/><path class="cls-3" d="M133.7,35.52v.78h-1.55v5h-1v-5h-1.55v-.78Z" transform="translate(-4.81 -7.04)"/><path class="cls-3" d="M136.29,35.52v3.71a1.31,1.31,0,0,0,.35,1,1.34,1.34,0,0,0,1,.33,1.36,1.36,0,0,0,1-.33,1.31,1.31,0,0,0,.35-1V35.52h.95v3.69a2.19,2.19,0,0,1-.31,1.2,1.91,1.91,0,0,1-.83.74,2.83,2.83,0,0,1-2.28,0,1.84,1.84,0,0,1-.82-.74,2.27,2.27,0,0,1-.3-1.2V35.52Z" transform="translate(-4.81 -7.04)"/><path class="cls-3" d="M145,41.33,143.66,39h-.72v2.32h-1V35.52h2a2.59,2.59,0,0,1,1.13.23,1.72,1.72,0,0,1,.7.63,1.75,1.75,0,0,1,.23.88,1.73,1.73,0,0,1-.33,1,1.67,1.67,0,0,1-1,.63l1.44,2.41Zm-2.06-3.08H144a1.1,1.1,0,0,0,.81-.27,1,1,0,0,0,.27-.72.93.93,0,0,0-.27-.71,1.14,1.14,0,0,0-.81-.25h-1.05Z" transform="translate(-4.81 -7.04)"/><path class="cls-3" d="M151.53,40.14H149.1l-.42,1.19h-1l2.08-5.82h1.1L153,41.33h-1Zm-.26-.77-1-2.7-.95,2.7Z" transform="translate(-4.81 -7.04)"/><path class="cls-3" d="M155.53,40.56h2v.77h-2.92V35.52h1Z" transform="translate(-4.81 -7.04)"/><path class="cls-3" d="M165.22,40.14h-2.44l-.41,1.19h-1l2.08-5.82h1.11l2.08,5.82h-1Zm-.27-.77-.94-2.7-1,2.7Z" transform="translate(-4.81 -7.04)"/><path class="cls-3" d="M171.68,35.52v.78h-2.47V38h1.92v.78h-1.92v2.54h-1V35.52Z" transform="translate(-4.81 -7.04)"/><path class="cls-3" d="M176.69,35.52v.78h-2.46V38h1.92v.78h-1.92v2.54h-1V35.52Z" transform="translate(-4.81 -7.04)"/><path class="cls-3" d="M181.34,40.14H178.9l-.42,1.19h-1l2.08-5.82h1.1l2.09,5.82h-1Zm-.27-.77-.95-2.7-1,2.7Z" transform="translate(-4.81 -7.04)"/><path class="cls-3" d="M185.33,35.52v5.81h-1V35.52Z" transform="translate(-4.81 -7.04)"/><path class="cls-3" d="M190.47,41.33,189.13,39h-.73v2.32h-1V35.52h2a2.59,2.59,0,0,1,1.13.23,1.72,1.72,0,0,1,.7.63,1.74,1.74,0,0,1,.22.88,1.67,1.67,0,0,1-.33,1,1.64,1.64,0,0,1-1,.63l1.44,2.41Zm-2.07-3.08h1.06a1.13,1.13,0,0,0,.81-.27,1,1,0,0,0,.27-.72.93.93,0,0,0-.27-.71,1.14,1.14,0,0,0-.81-.25H188.4Z" transform="translate(-4.81 -7.04)"/><path class="cls-3" d="M194.27,41.19a1.74,1.74,0,0,1-.74-.59,1.45,1.45,0,0,1-.27-.87h1a1,1,0,0,0,.3.62,1.06,1.06,0,0,0,.74.24,1.13,1.13,0,0,0,.77-.24.8.8,0,0,0,.28-.61.69.69,0,0,0-.17-.48,1.17,1.17,0,0,0-.43-.29,6.59,6.59,0,0,0-.71-.21,8.83,8.83,0,0,1-.92-.31,1.48,1.48,0,0,1-.61-.48,1.38,1.38,0,0,1-.25-.87,1.54,1.54,0,0,1,.25-.88,1.67,1.67,0,0,1,.7-.58,2.66,2.66,0,0,1,1.05-.2,2.13,2.13,0,0,1,1.38.43,1.54,1.54,0,0,1,.6,1.15h-1a.78.78,0,0,0-.3-.54,1.13,1.13,0,0,0-.73-.22,1,1,0,0,0-.67.2.74.74,0,0,0-.26.61.66.66,0,0,0,.16.44,1.27,1.27,0,0,0,.42.27c.17.06.39.14.68.22a6.88,6.88,0,0,1,.94.31,1.56,1.56,0,0,1,.62.49,1.42,1.42,0,0,1,.26.88,1.57,1.57,0,0,1-.24.84,1.76,1.76,0,0,1-.69.63,2.32,2.32,0,0,1-1.08.24A2.69,2.69,0,0,1,194.27,41.19Z" transform="translate(-4.81 -7.04)"/><path class="cls-3" d="M205.79,38.84a1.43,1.43,0,0,1,.33.93,1.49,1.49,0,0,1-.23.8,1.57,1.57,0,0,1-.67.56,2.39,2.39,0,0,1-1,.2h-2.32V35.52h2.21a2.41,2.41,0,0,1,1,.2,1.46,1.46,0,0,1,.65.54A1.43,1.43,0,0,1,206,37a1.27,1.27,0,0,1-.27.83,1.56,1.56,0,0,1-.72.5A1.25,1.25,0,0,1,205.79,38.84ZM202.84,38H204a1.13,1.13,0,0,0,.73-.21.84.84,0,0,0,0-1.23,1.08,1.08,0,0,0-.73-.22h-1.18Zm2,2.36a.79.79,0,0,0,.28-.65.84.84,0,0,0-.3-.68,1.12,1.12,0,0,0-.77-.25h-1.26v1.81h1.29A1.11,1.11,0,0,0,204.89,40.32Z" transform="translate(-4.81 -7.04)"/><path class="cls-3" d="M208.92,35.52v3.71a1.27,1.27,0,0,0,.35,1,1.33,1.33,0,0,0,1,.33,1.38,1.38,0,0,0,1-.33,1.31,1.31,0,0,0,.34-1V35.52h1v3.69a2.19,2.19,0,0,1-.31,1.2,1.91,1.91,0,0,1-.83.74,2.85,2.85,0,0,1-2.29,0,1.87,1.87,0,0,1-.81-.74,2.27,2.27,0,0,1-.3-1.2V35.52Z" transform="translate(-4.81 -7.04)"/><path class="cls-3" d="M217.63,41.33,216.29,39h-.73v2.32h-.95V35.52h2a2.6,2.6,0,0,1,1.14.23,1.63,1.63,0,0,1,.69.63,1.65,1.65,0,0,1,.23.88,1.73,1.73,0,0,1-.33,1,1.67,1.67,0,0,1-1,.63l1.44,2.41Zm-2.07-3.08h1.05a1.1,1.1,0,0,0,.81-.27,1,1,0,0,0,.27-.72.93.93,0,0,0-.26-.71,1.15,1.15,0,0,0-.82-.25h-1.05Z" transform="translate(-4.81 -7.04)"/><path class="cls-3" d="M221.59,36.29V38h2v.77h-2v1.78h2.26v.78h-3.21V35.51h3.21v.78Z" transform="translate(-4.81 -7.04)"/><path class="cls-3" d="M229.27,40.14h-2.44l-.42,1.19h-1l2.08-5.82h1.1l2.09,5.82h-1Zm-.27-.77-.95-2.7-1,2.7Z" transform="translate(-4.81 -7.04)"/><path class="cls-3" d="M233.08,35.52v3.71a1.27,1.27,0,0,0,.35,1,1.33,1.33,0,0,0,1,.33,1.38,1.38,0,0,0,1-.33,1.31,1.31,0,0,0,.34-1V35.52h1v3.69a2.28,2.28,0,0,1-.31,1.2,2,2,0,0,1-.83.74,2.72,2.72,0,0,1-1.15.24,2.64,2.64,0,0,1-1.14-.24,1.87,1.87,0,0,1-.81-.74,2.27,2.27,0,0,1-.3-1.2V35.52Z" transform="translate(-4.81 -7.04)"/><path class="cls-3" d="M112.31,48.72a2.82,2.82,0,0,1,1.08-1.06,3.15,3.15,0,0,1,3.14.08,2.59,2.59,0,0,1,1,1.29h-1.14a1.67,1.67,0,0,0-.63-.68,1.78,1.78,0,0,0-.93-.23,2,2,0,0,0-1,.26,1.81,1.81,0,0,0-.71.74,2.41,2.41,0,0,0-.25,1.13,2.38,2.38,0,0,0,.25,1.13,1.84,1.84,0,0,0,.71.75,2,2,0,0,0,1,.26,1.88,1.88,0,0,0,.93-.22,1.63,1.63,0,0,0,.63-.69h1.14a2.59,2.59,0,0,1-1,1.29,3.2,3.2,0,0,1-3.15.07,2.79,2.79,0,0,1-1.07-1.06,3.13,3.13,0,0,1,0-3.06Z" transform="translate(-4.81 -7.04)"/><path class="cls-3" d="M124.07,47.36v5.81h-.95V50.63h-2.74v2.54h-.95V47.36h.95v2.49h2.74V47.36Z" transform="translate(-4.81 -7.04)"/><path class="cls-3" d="M127.15,47.36v5.81h-1V47.36Z" transform="translate(-4.81 -7.04)"/><path class="cls-3" d="M132.62,52h-2.44l-.42,1.19h-1l2.08-5.82H132L134,53.17h-1Zm-.27-.77-.95-2.71-1,2.71Z" transform="translate(-4.81 -7.04)"/><path class="cls-3" d="M139.48,47.36l-1.92,3.7v2.11h-.95V51.06l-1.94-3.7h1.07l1.34,2.85,1.35-2.85Z" transform="translate(-4.81 -7.04)"/><path class="cls-3" d="M142,47.36v5.81H141V47.36Z" transform="translate(-4.81 -7.04)"/><path class="cls-3" d="M146.73,48.72a3,3,0,0,1,1.08-1.06,3.15,3.15,0,0,1,3.14.08A2.56,2.56,0,0,1,152,49h-1.15a1.54,1.54,0,0,0-.63-.68,1.78,1.78,0,0,0-.93-.23,2,2,0,0,0-1,.26,1.75,1.75,0,0,0-.71.74,2.41,2.41,0,0,0-.26,1.13,2.39,2.39,0,0,0,.26,1.13,1.77,1.77,0,0,0,.71.75,1.94,1.94,0,0,0,1,.26,1.88,1.88,0,0,0,.93-.22,1.52,1.52,0,0,0,.63-.69H152A2.56,2.56,0,0,1,151,52.77a3.18,3.18,0,0,1-3.14.07,2.89,2.89,0,0,1-1.08-1.06,3.13,3.13,0,0,1,0-3.06Z" transform="translate(-4.81 -7.04)"/><path class="cls-3" d="M154.82,47.36v5.81h-.95V47.36Z" transform="translate(-4.81 -7.04)"/><path class="cls-3" d="M160.52,47.36v.78H159v5H158v-5h-1.56v-.78Z" transform="translate(-4.81 -7.04)"/><path class="cls-3" d="M166.7,47.36l-1.92,3.7v2.11h-1V51.06l-1.93-3.7H163l1.35,2.85,1.35-2.85Z" transform="translate(-4.81 -7.04)"/></svg>